<svg id="Capa_1" data-name="Capa 1" xmlns="http://www.w3.org/2000/svg" viewBox="0 0 675.93 959.96"><defs><style>.cls-1{fill:#3781c3;}.cls-2{fill:#fff;}</style></defs><path class="cls-1" d="M567.39,61.32a350.4,350.4,0,0,1,81.33,17.36l1.25.43q11,3.78,21.72,8.19A314.66,314.66,0,0,1,816.05,205.15a374,374,0,0,1,25.1,43.54c54,109.7,48,219.41-13.93,324.51C742.73,716.57,656.47,858.89,571,1001.64c-14.45,24.12-38.54,24.5-53.3.74q-132-212.5-263.77-425.11c-41-66.15-58.22-138.2-49.73-215.53,9.12-83.15,44.71-153.67,105.86-211a332.33,332.33,0,0,1,92.6-61.49C440.74,72.38,482,62.18,523.73,60.32A329.37,329.37,0,0,1,567.39,61.32Z" transform="translate(-202.04 -60.01)"/><path class="cls-2" d="M708.29,397.11c.31,93.4-75.15,169.1-168.68,169.22A168.78,168.78,0,0,1,370.54,398.39C370,305.24,445.45,229,538.77,228.57,631.87,228.12,708,303.78,708.29,397.11Z" transform="translate(-202.04 -60.01)"/><path class="cls-2" d="M539.35,509.91A112.57,112.57,0,0,1,427,397.42c0-61.86,50.69-112.48,112.54-112.43S652,335.73,651.88,397.58A112.46,112.46,0,0,1,539.35,509.91Z" transform="translate(-202.04 -60.01)"/><path class="cls-1" d="M671.55,389.27a12.94,12.94,0,0,1-1.28,3.82,34.09,34.09,0,0,1-3,4.25c-1.8,2.38-3.8,4.6-5.71,6.88-12.59,15.07-25.27,30-37.76,45.2-9.48,11.5-21.71,16.91-36.39,17-21.62.1-43.23.31-64.84-.12-8.07-.16-13.42,3.59-18.4,9-.66.72-.46,1.34-.3,2.11,1.13,5.8-.25,10.84-4.52,15-7.9,7.76-15.75,15.55-23.65,23.29-.9.88-2,1.58-2.95,2.37l-2.83.16a22.94,22.94,0,0,1-4.31-3.62Q438.25,487,410.87,459.44c-4.25-4.29-3.62-6.74,1.88-11.53A221.45,221.45,0,0,0,432.46,428c3.83-4.31,8.38-6.7,14-6.18a2.2,2.2,0,0,0,2.37-1.39c13.26-22,33.34-31.29,58.34-31.35a61.91,61.91,0,0,1,23.3,4.56,9.79,9.79,0,0,0,3.78.53c17.49,0,35,.08,52.48,0,6.92-.05,13.06,1.54,17.85,6.82,1.32,1.47,1.76-.08,2.31-.65,7-7.15,14-14.36,21-21.55l8.43-8.67a21.17,21.17,0,0,1,18.6-6.38,20.42,20.42,0,0,1,10.68,5.46,21.46,21.46,0,0,1,3.75,4.78,20.13,20.13,0,0,1,2.49,9.54A27.48,27.48,0,0,1,671.55,389.27ZM587.62,456.1c11.39-.13,21-4.21,28.24-13.31,2.88-3.63,5.93-7.12,8.9-10.67q17.16-20.5,34.31-41c3.94-4.73,3.56-10.9-.76-14.74a10.21,10.21,0,0,0-14.18.57C633,388.24,622,399.65,610.93,411a2.81,2.81,0,0,0-1,2.22c.17,13.43-8.52,22.22-22,22.25-13,0-25.91,0-38.86,0a12.94,12.94,0,0,1-3.05-.29,5.05,5.05,0,0,1,.41-9.89,19.68,19.68,0,0,1,3.07-.15q19.17,0,38.34,0a21.52,21.52,0,0,0,3.59-.25,10.17,10.17,0,0,0,8.08-11.83c-1-5.45-5.1-8.55-11.39-8.56q-27.79,0-55.58,0a10.51,10.51,0,0,1-4.29-.62,57.85,57.85,0,0,0-32.74-3.65c-16.18,2.63-28.87,10.65-37.47,24.83-1,1.62-.84,2.51.5,3.84q18.56,18.38,36.92,36.94c1.58,1.6,2.36,1.43,3.71-.08,6.35-7.11,14.3-10,23.85-9.7,10.1.36,20.24.08,30.36.08C564.8,456.13,576.21,456.23,587.62,456.1ZM492,476.86q-21.48-21.47-43-42.92c-2.57-2.56-5.35-2.58-7.9-.05-6.51,6.47-12.95,13-19.48,19.46-.95.95-.95,1.45,0,2.4q24.17,24.24,48.23,48.56c1,1,1.59,1.07,2.62,0,6.5-6.49,13-12.91,19.59-19.35a5.19,5.19,0,0,0,1.79-4.18A5.14,5.14,0,0,0,492,476.86Z" transform="translate(-202.04 -60.01)"/><path class="cls-1" d="M530.94,429.26a5.13,5.13,0,0,1-5.07,5.32,5.28,5.28,0,0,1-5.2-5,5.17,5.17,0,0,1,4.87-5.27A5,5,0,0,1,530.94,429.26Z" transform="translate(-202.04 -60.01)"/><path class="cls-1" d="M551.27,371a56.69,56.69,0,1,1,56.61-56.79A56.62,56.62,0,0,1,551.27,371Zm46.31-56.77a46.37,46.37,0,1,0-46.33,46.47A46.4,46.4,0,0,0,597.58,314.19Z" transform="translate(-202.04 -60.01)"/><path class="cls-1" d="M567.57,334.5q-4.25,4.14-12.25,5.13v7.94h-7.09v-7.72a38.65,38.65,0,0,1-10-1.85,25,25,0,0,1-7.65-3.82l3.9-8.65a25,25,0,0,0,6.3,3.33,28.5,28.5,0,0,0,7.44,1.7V318.73a53.3,53.3,0,0,1-8.5-2.69,15,15,0,0,1-5.81-4.36,11.67,11.67,0,0,1-2.34-7.61,13.66,13.66,0,0,1,4.29-10.1q4.29-4.22,12.36-5.14V281h7.09v7.72q8.71.71,14.38,4.32l-3.54,8.72A28.35,28.35,0,0,0,555.32,298v12a51.4,51.4,0,0,1,8.39,2.58,14.74,14.74,0,0,1,5.78,4.33,11.54,11.54,0,0,1,2.34,7.54A13.41,13.41,0,0,1,567.57,334.5Zm-23.24-28.1a11.06,11.06,0,0,0,3.9,1.92V298.26a7.67,7.67,0,0,0-4,2A4.63,4.63,0,0,0,543,303.5,3.63,3.63,0,0,0,544.33,306.4Zm14.81,22a4.17,4.17,0,0,0,1.28-3.05,3.66,3.66,0,0,0-1.31-2.9,11.58,11.58,0,0,0-3.79-2v9.78A7.64,7.64,0,0,0,559.14,328.44Z" transform="translate(-202.04 -60.01)"/></svg>